
<svg width="13" height="15" viewBox="0 0 13 15" fill="none" xmlns="http://www.w3.org/2000/svg">
<g clip-path="url(#clip0_1_9188)">
<path d="M1.16647 5.55423C1.16647 4.85334 1.72966 4.28525 2.4245 4.28525H10.6377L8.98132 5.95606C8.98132 5.95606 8.69752 6.26792 8.98132 6.5542C9.26512 6.84047 9.57429 6.5542 9.57429 6.5542L11.9465 4.16133C12.1102 3.9961 12.1102 3.72842 11.9465 3.56319L9.57429 1.17032C9.57429 1.17032 9.23408 0.915368 8.98132 1.17032C8.72856 1.42527 8.98132 1.76846 8.98132 1.76846L10.6377 3.43926H2.4245C1.26711 3.44061 0.32912 4.38677 0.327789 5.55423V7.24621C0.327789 7.24621 0.327789 7.6719 0.747131 7.6719C1.16647 7.6719 1.16647 7.24621 1.16647 7.24621V5.55423Z" fill="#FAFAFA"/>
<path d="M11.2305 8.9775C11.2305 9.6784 10.6673 10.2465 9.97248 10.2465L1.75928 10.2465L3.41566 8.57568C3.41566 8.57568 3.69946 8.26381 3.41566 7.97754C3.13185 7.69126 2.82268 7.97754 2.82268 7.97754L0.450472 10.3704C0.286769 10.5356 0.286769 10.8033 0.450472 10.9685L2.82268 13.3614C2.82268 13.3614 3.1629 13.6164 3.41566 13.3614C3.66841 13.1065 3.41566 12.7633 3.41566 12.7633L1.75928 11.0925L9.97248 11.0925C11.1299 11.0911 12.0679 10.145 12.0692 8.9775L12.0692 7.28553C12.0692 7.28553 12.0692 6.85983 11.6498 6.85983C11.2305 6.85983 11.2305 7.28553 11.2305 7.28553L11.2305 8.9775Z" fill="#FAFAFA"/>
</g>
<defs>
<clipPath id="clip0_1_9188">
<rect width="12.0468" height="13.8877" fill="white" transform="translate(0.179688 0.302246)"/>
</clipPath>
</defs>
</svg>
