
<svg width="48" height="48" viewBox="0 0 48 48" fill="none" xmlns="http://www.w3.org/2000/svg">
<circle cx="24" cy="23.9998" r="19.3655" fill="white"/>
<g clip-path="url(#clip0_1_5966)">
<mask id="mask0_1_5966" style="mask-type:alpha" maskUnits="userSpaceOnUse" x="20" y="17" width="9" height="15">
<path d="M22.8262 30.4559C22.2191 31.1156 21.3436 31.1778 20.9344 31.1119C20.746 31.0816 20.7958 30.9187 20.9302 30.7772L25.7949 25.6549C26.7227 24.6779 26.6401 23.0578 25.6718 22.1249C25.506 21.9651 25.3193 21.7848 25.1071 21.5795C23.9964 20.774 23.5796 20.2395 23.5264 20.0167C23.5102 19.9492 23.5604 19.8921 23.6066 19.8422C23.7367 19.7018 24.1085 19.3078 25.1588 18.2198C26.4965 16.8341 25.8849 18.4303 26.2745 19.458C26.3869 19.7546 26.5779 20.0171 26.6883 20.3145L27.28 21.908C27.3904 22.2053 27.5719 22.4666 27.7379 22.7342C28.2911 23.6263 28.1943 24.832 27.4475 25.6144L22.8262 30.4559Z" fill="url(#paint0_linear_1_5966)"/>
</mask>
<g mask="url(#mask0_1_5966)">
<g filter="url(#filter0_d_1_5966)">
<path d="M21.1998 30.4561C20.3417 31.355 18.9504 31.355 18.0924 30.4561C15.1933 26.4567 13.611 26.3441 14.4691 25.4451L20.2553 19.5572C21.0626 18.7357 22.3266 18.6936 23.1286 19.521C23.8978 20.3145 24.7852 21.2738 25.821 22.359C26.6791 23.258 26.6791 24.7155 25.821 25.6145L21.1998 30.4561Z" fill="url(#paint1_linear_1_5966)"/>
</g>
</g>
<mask id="mask1_1_5966" style="mask-type:alpha" maskUnits="userSpaceOnUse" x="12" y="17" width="9" height="15">
<path d="M18.1132 30.4559C19.1243 31.5323 20.4852 30.9724 20.4691 30.9543L15.3312 25.9147C14.7967 25.3547 13.4174 23.6929 15.8324 21.5795C16.943 20.774 17.3598 20.2395 17.4131 20.0167C17.4292 19.9492 17.379 19.8921 17.3328 19.8422C17.2027 19.7018 16.8309 19.3077 15.7806 18.2198C14.443 16.8341 15.0545 18.4303 14.6649 19.458C14.5525 19.7546 14.3615 20.0171 14.2511 20.3145L13.6594 21.908C13.549 22.2053 13.3675 22.4666 13.2015 22.7342C12.6483 23.6263 12.7451 24.832 13.492 25.6144L18.1132 30.4559Z" fill="url(#paint2_linear_1_5966)"/>
</mask>
<g mask="url(#mask1_1_5966)">
<g filter="url(#filter1_d_1_5966)">
<path d="M19.7397 30.4561C20.5978 31.355 21.989 31.355 22.8471 30.4561C25.7461 26.4567 27.3284 26.3441 26.4703 25.4451L20.6842 19.5572C19.8768 18.7357 18.6129 18.6936 17.8109 19.521C17.0416 20.3145 16.1543 21.2738 15.1184 22.359C14.2603 23.258 14.2603 24.7155 15.1184 25.6145L19.7397 30.4561Z" fill="url(#paint3_linear_1_5966)"/>
</g>
</g>
<path d="M15.0975 25.6142L19.7188 30.4557C20.5768 31.3547 21.9681 31.3547 22.8262 30.4557L27.4474 25.6142C28.3055 24.7152 28.3055 23.2577 27.4474 22.3587L22.8262 17.5172C21.9681 16.6182 20.5768 16.6182 19.7188 17.5172L15.0975 22.3587C14.2394 23.2577 14.2394 24.7152 15.0975 25.6142Z" fill="url(#paint4_linear_1_5966)"/>
<path d="M35.1661 22.3589L30.5448 17.5174C29.6867 16.6184 28.2955 16.6184 27.4374 17.5174L22.8161 22.3589C21.958 23.2579 21.958 24.7155 22.8161 25.6144L27.4374 30.456C28.2955 31.355 29.6867 31.355 30.5448 30.456L35.1661 25.6144C36.0241 24.7155 36.0242 23.2579 35.1661 22.3589Z" fill="url(#paint5_linear_1_5966)"/>
<path d="M13.471 25.6142L18.0923 30.4557C18.9504 31.3547 20.3416 31.3547 21.1997 30.4557L25.821 25.6142C26.6791 24.7152 26.6791 23.2577 25.821 22.3587L21.1997 17.5172C20.3416 16.6182 18.9504 16.6182 18.0923 17.5172L13.471 22.3587C12.6129 23.2577 12.6129 24.7152 13.471 25.6142Z" fill="url(#paint6_linear_1_5966)"/>
<path d="M33.5396 22.3589L28.9183 17.5174C28.0602 16.6184 26.669 16.6184 25.8109 17.5174L21.1896 22.3589C20.3316 23.2579 20.3316 24.7155 21.1896 25.6144L25.8109 30.456C26.669 31.355 28.0602 31.355 28.9183 30.456L33.5396 25.6144C34.3977 24.7155 34.3977 23.2579 33.5396 22.3589Z" fill="url(#paint7_linear_1_5966)"/>
</g>
<defs>
<filter id="filter0_d_1_5966" x="6.23633" y="13.9204" width="28.2283" height="28.21" filterUnits="userSpaceOnUse" color-interpolation-filters="sRGB">
<feFlood flood-opacity="0" result="BackgroundImageFix"/>
<feColorMatrix in="SourceAlpha" type="matrix" values="0 0 0 0 0 0 0 0 0 0 0 0 0 0 0 0 0 0 127 0" result="hardAlpha"/>
<feOffset dy="3"/>
<feGaussianBlur stdDeviation="4"/>
<feColorMatrix type="matrix" values="0 0 0 0 0.270833 0 0 0 0 0.270833 0 0 0 0 0.270833 0 0 0 0.5 0"/>
<feBlend mode="normal" in2="BackgroundImageFix" result="effect1_dropShadow_1_5966"/>
<feBlend mode="normal" in="SourceGraphic" in2="effect1_dropShadow_1_5966" result="shape"/>
</filter>
<filter id="filter1_d_1_5966" x="8.47485" y="17.9204" width="22.2283" height="22.21" filterUnits="userSpaceOnUse" color-interpolation-filters="sRGB">
<feFlood flood-opacity="0" result="BackgroundImageFix"/>
<feColorMatrix in="SourceAlpha" type="matrix" values="0 0 0 0 0 0 0 0 0 0 0 0 0 0 0 0 0 0 127 0" result="hardAlpha"/>
<feOffset dx="-1" dy="4"/>
<feGaussianBlur stdDeviation="2.5"/>
<feColorMatrix type="matrix" values="0 0 0 0 0.270833 0 0 0 0 0.270833 0 0 0 0 0.270833 0 0 0 1 0"/>
<feBlend mode="normal" in2="BackgroundImageFix" result="effect1_dropShadow_1_5966"/>
<feBlend mode="normal" in="SourceGraphic" in2="effect1_dropShadow_1_5966" result="shape"/>
</filter>
<linearGradient id="paint0_linear_1_5966" x1="21.8657" y1="31.1349" x2="28.2097" y2="22.4894" gradientUnits="userSpaceOnUse">
<stop stop-color="#00F5A0"/>
<stop offset="1" stop-color="#00F5A0" stop-opacity="0.1"/>
</linearGradient>
<linearGradient id="paint1_linear_1_5966" x1="20.3505" y1="18.1115" x2="20.3505" y2="31.1303" gradientUnits="userSpaceOnUse">
<stop offset="0.015625" stop-color="#00F5A0"/>
<stop offset="0.015725" stop-color="#00F5A0"/>
<stop offset="0.9998" stop-color="#00F0FF" stop-opacity="0.05"/>
<stop offset="0.9999" stop-color="#00F0FF" stop-opacity="0.05"/>
</linearGradient>
<linearGradient id="paint2_linear_1_5966" x1="19.4002" y1="31.442" x2="13.4112" y2="23.4877" gradientUnits="userSpaceOnUse">
<stop stop-color="#00F5A0"/>
<stop offset="1" stop-color="#00F5A0" stop-opacity="0.1"/>
</linearGradient>
<linearGradient id="paint3_linear_1_5966" x1="20.589" y1="18.1115" x2="20.589" y2="31.1303" gradientUnits="userSpaceOnUse">
<stop offset="0.015625" stop-color="#00F5A0"/>
<stop offset="0.015725" stop-color="#00F5A0"/>
<stop offset="0.9998" stop-color="#00F0FF" stop-opacity="0.05"/>
<stop offset="0.9999" stop-color="#00F0FF" stop-opacity="0.05"/>
</linearGradient>
<linearGradient id="paint4_linear_1_5966" x1="17.4081" y1="28.035" x2="25.4964" y2="20.3147" gradientUnits="userSpaceOnUse">
<stop offset="0.015625" stop-color="#00F5A0"/>
<stop offset="0.015725" stop-color="#00F5A0"/>
<stop offset="0.9998" stop-color="#00F0FF" stop-opacity="0.05"/>
<stop offset="0.9999" stop-color="#00F0FF" stop-opacity="0.05"/>
</linearGradient>
<linearGradient id="paint5_linear_1_5966" x1="32.8554" y1="19.9382" x2="24.7672" y2="27.6585" gradientUnits="userSpaceOnUse">
<stop/>
<stop offset="0.0001" stop-color="#15C5FE"/>
<stop offset="0.9999" stop-color="#04A5FF" stop-opacity="0.05"/>
<stop offset="1" stop-color="#04A5FF" stop-opacity="0.05"/>
</linearGradient>
<linearGradient id="paint6_linear_1_5966" x1="15.7817" y1="28.035" x2="23.8699" y2="20.3147" gradientUnits="userSpaceOnUse">
<stop offset="0.015625" stop-color="#00F5A0"/>
<stop offset="0.015725" stop-color="#00F5A0"/>
<stop offset="0.9998" stop-color="#00F0FF" stop-opacity="0.05"/>
<stop offset="0.9999" stop-color="#00F0FF" stop-opacity="0.05"/>
</linearGradient>
<linearGradient id="paint7_linear_1_5966" x1="31.229" y1="19.9382" x2="23.1407" y2="27.6585" gradientUnits="userSpaceOnUse">
<stop stop-color="#15C5FE"/>
<stop offset="0.0001" stop-color="#15C5FE"/>
<stop offset="0.9999" stop-color="#04A5FF" stop-opacity="0.05"/>
<stop offset="1" stop-color="#04A5FF" stop-opacity="0.05"/>
</linearGradient>
<clipPath id="clip0_1_5966">
<rect width="24.8276" height="16.2207" fill="white" transform="translate(11.9174 15.8896)"/>
</clipPath>
</defs>
</svg>
