
<svg width="19" height="7" viewBox="0 0 19 7" fill="none" xmlns="http://www.w3.org/2000/svg">
<path d="M1.81699 1.84473V6H0.913671V0.716797H1.76816L1.81699 1.84473ZM1.60215 3.1582L1.22617 3.14355C1.22943 2.78223 1.28314 2.44857 1.3873 2.14258C1.49147 1.83333 1.63796 1.56478 1.82676 1.33691C2.01556 1.10905 2.24017 0.933268 2.50059 0.80957C2.76426 0.682617 3.0556 0.619141 3.37461 0.619141C3.63503 0.619141 3.8694 0.654948 4.07773 0.726562C4.28607 0.794922 4.46348 0.905599 4.60996 1.05859C4.7597 1.21159 4.87363 1.41016 4.95176 1.6543C5.02988 1.89518 5.06894 2.18978 5.06894 2.53809V6H4.16074V2.52832C4.16074 2.25163 4.12005 2.03027 4.03867 1.86426C3.95729 1.69499 3.83848 1.57292 3.68223 1.49805C3.52598 1.41992 3.33392 1.38086 3.10605 1.38086C2.88144 1.38086 2.67637 1.42806 2.49082 1.52246C2.30853 1.61686 2.15065 1.74707 2.01719 1.91309C1.88698 2.0791 1.78444 2.26953 1.70957 2.48438C1.63796 2.69596 1.60215 2.92057 1.60215 3.1582ZM8.7334 6.09766C8.36556 6.09766 8.0319 6.03581 7.73242 5.91211C7.4362 5.78516 7.18066 5.60775 6.96582 5.37988C6.75423 5.15202 6.59147 4.88184 6.47754 4.56934C6.36361 4.25684 6.30664 3.91504 6.30664 3.54395V3.33887C6.30664 2.90918 6.37012 2.52669 6.49707 2.19141C6.62402 1.85286 6.79655 1.56641 7.01465 1.33203C7.23275 1.09766 7.48014 0.920247 7.75684 0.799805C8.03353 0.679362 8.31999 0.619141 8.61621 0.619141C8.99381 0.619141 9.31934 0.684245 9.59277 0.814453C9.86947 0.944661 10.0957 1.12695 10.2715 1.36133C10.4473 1.59245 10.5775 1.86589 10.6621 2.18164C10.7467 2.49414 10.7891 2.83594 10.7891 3.20703V3.6123H6.84375V2.875H9.88574V2.80664C9.87272 2.57227 9.82389 2.3444 9.73926 2.12305C9.65788 1.90169 9.52767 1.7194 9.34863 1.57617C9.1696 1.43294 8.92546 1.36133 8.61621 1.36133C8.41113 1.36133 8.22233 1.40527 8.0498 1.49316C7.87728 1.5778 7.72917 1.70475 7.60547 1.87402C7.48177 2.04329 7.38574 2.25 7.31738 2.49414C7.24902 2.73828 7.21484 3.01986 7.21484 3.33887V3.54395C7.21484 3.7946 7.24902 4.0306 7.31738 4.25195C7.389 4.47005 7.49154 4.66211 7.625 4.82812C7.76172 4.99414 7.92611 5.12435 8.11816 5.21875C8.31348 5.31315 8.53483 5.36035 8.78223 5.36035C9.10124 5.36035 9.37142 5.29525 9.59277 5.16504C9.81413 5.03483 10.0078 4.86068 10.1738 4.64258L10.7207 5.07715C10.6068 5.24967 10.4619 5.41406 10.2861 5.57031C10.1104 5.72656 9.89388 5.85352 9.63672 5.95117C9.38281 6.04883 9.08171 6.09766 8.7334 6.09766ZM13.2816 5.0625L14.6391 0.716797H15.2348L15.1176 1.58105L13.7357 6H13.1547L13.2816 5.0625ZM12.3686 0.716797L13.5258 5.11133L13.6088 6H12.9984L11.4652 0.716797H12.3686ZM16.5336 5.07715L17.6371 0.716797H18.5355L17.0023 6H16.3969L16.5336 5.07715ZM15.3666 0.716797L16.6947 4.98926L16.8461 6H16.2699L14.849 1.57129L14.7318 0.716797H15.3666Z" fill="#263238"/>
</svg>
